# Blender v2.78 (sub 0) OBJ File: 'TheCargoBay.blend'
# www.blender.org
mtllib Scifi_Crate.mtl
o Cube.001_Mesh.050
v 0.750064 1.238103 -0.602730
v -0.750064 1.238103 0.602730
v 0.750064 1.238103 0.602730
v -0.750064 1.238103 -0.602730
v -0.731940 1.270747 0.586103
v 0.731940 1.270746 -0.586103
v 0.731940 1.270747 0.586103
v -0.731940 1.270746 -0.586103
v -0.750064 0.032644 0.602730
v 0.750064 0.032644 0.602730
v -0.731940 0.049270 0.635373
v 0.731940 1.221477 0.635373
v 0.731940 0.049270 0.635373
v -0.731940 1.221476 0.635373
v 0.750064 0.032643 -0.602729
v -0.750064 0.032643 -0.602729
v 0.731940 0.049270 -0.635373
v -0.731940 1.221476 -0.635373
v -0.731940 0.049270 -0.635373
v 0.731940 1.221476 -0.635373
v -0.782708 0.049270 -0.584605
v -0.782708 1.221477 0.584605
v -0.782707 0.049270 0.584605
v -0.782708 1.221476 -0.584605
v 0.782708 0.049270 0.584605
v 0.782708 1.221476 -0.584605
v 0.782707 0.049270 -0.584605
v 0.782708 1.221476 0.584605
v -0.731940 -0.000000 -0.586103
v 0.731940 -0.000000 0.586103
v 0.731940 -0.000000 -0.586103
v -0.731940 -0.000000 0.586103
vt 0.4396 0.4944
vt 0.6104 0.4998
vt 0.4372 0.4998
vt 0.4396 0.2841
vt 0.6104 0.2787
vt 0.6080 0.2841
vt 0.6133 0.4970
vt 0.6080 0.4944
vt 0.4343 0.2815
vt 0.4343 0.4970
vt 0.4396 0.4944
vt 0.6104 0.4998
vt 0.4372 0.4998
vt 0.4396 0.2841
vt 0.6104 0.2787
vt 0.6080 0.2841
vt 0.6133 0.4970
vt 0.6080 0.4944
vt 0.4343 0.2815
vt 0.4343 0.4970
vt 0.4396 0.4944
vt 0.6104 0.4998
vt 0.4372 0.4998
vt 0.4396 0.2841
vt 0.6104 0.2787
vt 0.6080 0.2841
vt 0.6133 0.4970
vt 0.6080 0.4944
vt 0.4343 0.2815
vt 0.4343 0.4970
vt 0.4396 0.4944
vt 0.6104 0.4998
vt 0.4372 0.4998
vt 0.4396 0.2841
vt 0.6104 0.2787
vt 0.6080 0.2841
vt 0.6080 0.4944
vt 0.6133 0.2815
vt 0.6133 0.4970
vt 0.4343 0.4970
vt 0.4396 0.4944
vt 0.6104 0.4998
vt 0.4396 0.2841
vt 0.6104 0.2787
vt 0.6080 0.2841
vt 0.6080 0.4944
vt 0.6133 0.2815
vt 0.6133 0.4970
vt 0.4343 0.2815
vt 0.6080 0.4944
vt 0.4372 0.4998
vt 0.4396 0.4944
vt 0.4396 0.2841
vt 0.6080 0.2841
vt 0.4343 0.2815
vt 0.4343 0.4970
vt 0.4372 0.2787
vt 0.6133 0.2815
vt 0.4372 0.2787
vt 0.6133 0.2815
vt 0.4372 0.2787
vt 0.6133 0.2815
vt 0.4372 0.2787
vt 0.4372 0.2787
vn 0.4071 0.8093 -0.4234
vn 0.5805 0.5742 0.5773
vn 0.5805 0.5742 -0.5773
vn -0.4071 0.8093 -0.4234
vn -0.5805 0.5742 0.5773
vn -0.4071 0.8093 0.4234
vn 0.4071 0.8093 0.4234
vn -0.5805 0.5742 -0.5773
vn 0.4071 0.4234 0.8093
vn 0.5805 -0.5742 0.5773
vn -0.4071 0.4234 0.8093
vn -0.5805 -0.5742 0.5773
vn -0.4071 -0.4234 0.8093
vn 0.4071 -0.4234 0.8093
vn -0.4071 0.4234 -0.8093
vn -0.5805 -0.5742 -0.5773
vn 0.4071 0.4234 -0.8093
vn 0.5805 -0.5742 -0.5773
vn 0.4071 -0.4234 -0.8093
vn -0.4071 -0.4234 -0.8093
vn -0.8093 0.4234 0.4071
vn -0.8093 0.4234 -0.4071
vn -0.8093 -0.4234 -0.4071
vn -0.8093 -0.4234 0.4071
vn 0.8093 0.4234 -0.4071
vn 0.8093 0.4234 0.4071
vn 0.8093 -0.4234 0.4071
vn 0.8093 -0.4234 -0.4071
vn 0.4071 -0.8093 -0.4234
vn 0.4071 -0.8093 0.4234
vn -0.4071 -0.8093 0.4234
vn -0.4071 -0.8093 -0.4234
usemtl MAT_SciFI_Crate02.002
s 1
f 6/1/1 3/2/2 1/3/3
f 8/4/4 2/5/5 5/6/6
f 5/6/6 3/7/2 7/8/7
f 7/8/7 8/4/4 5/6/6
f 4/9/8 6/1/1 1/10/3
f 12/11/9 10/12/10 3/13/2
f 14/14/11 9/15/12 11/16/13
f 11/16/13 10/17/10 13/18/14
f 13/18/14 14/14/11 11/16/13
f 2/19/5 12/11/9 3/20/2
f 18/21/15 16/22/16 4/23/8
f 20/24/17 15/25/18 17/26/19
f 17/26/19 16/27/16 19/28/20
f 19/28/20 20/24/17 17/26/19
f 1/29/3 18/21/15 4/30/8
f 22/31/21 9/32/12 2/33/5
f 24/34/22 16/35/16 21/36/23
f 23/37/24 16/38/16 9/39/12
f 23/37/24 24/34/22 21/36/23
f 4/9/8 22/31/21 2/40/5
f 26/41/25 15/42/18 1/3/3
f 28/43/26 10/44/10 25/45/27
f 27/46/28 10/47/10 15/48/18
f 27/46/28 28/43/26 25/45/27
f 3/49/2 26/41/25 1/10/3
f 31/50/29 10/51/10 30/52/30
f 32/53/31 16/35/16 29/54/32
f 29/54/32 15/48/18 31/50/29
f 31/50/29 32/53/31 29/54/32
f 9/55/12 30/52/30 10/56/10
f 6/1/1 7/8/7 3/2/2
f 8/4/4 4/57/8 2/5/5
f 5/6/6 2/58/5 3/7/2
f 7/8/7 6/1/1 8/4/4
f 4/9/8 8/4/4 6/1/1
f 12/11/9 13/18/14 10/12/10
f 14/14/11 2/59/5 9/15/12
f 11/16/13 9/60/12 10/17/10
f 13/18/14 12/11/9 14/14/11
f 2/19/5 14/14/11 12/11/9
f 18/21/15 19/28/20 16/22/16
f 20/24/17 1/61/3 15/25/18
f 17/26/19 15/62/18 16/27/16
f 19/28/20 18/21/15 20/24/17
f 1/29/3 20/24/17 18/21/15
f 22/31/21 23/37/24 9/32/12
f 24/34/22 4/57/8 16/35/16
f 23/37/24 21/36/23 16/38/16
f 23/37/24 22/31/21 24/34/22
f 4/9/8 24/34/22 22/31/21
f 26/41/25 27/46/28 15/42/18
f 28/43/26 3/63/2 10/44/10
f 27/46/28 25/45/27 10/47/10
f 27/46/28 26/41/25 28/43/26
f 3/49/2 28/43/26 26/41/25
f 31/50/29 15/42/18 10/51/10
f 32/53/31 9/64/12 16/35/16
f 29/54/32 16/38/16 15/48/18
f 31/50/29 30/52/30 32/53/31
f 9/55/12 32/53/31 30/52/30
